<svg width="117" height="117" viewBox="0 0 117 117" fill="none" xmlns="http://www.w3.org/2000/svg">
<path d="M57.8113 110.274C54.8352 108.556 51.9131 106.738 48.872 105.145C44.7236 102.972 44.4715 97.2833 48.5883 95.0487C51.0838 93.6945 52.926 91.6914 53.6481 88.8427C54.6641 84.8432 53.6726 81.3769 50.5619 78.7046C47.5135 76.0895 43.9346 75.4155 40.1774 76.9599C36.3851 78.5158 34.3401 81.4764 34.0019 85.5817C33.9659 85.9991 33.9872 86.4206 33.9758 86.838C33.858 91.2898 29.448 93.8422 25.5636 91.635C19.322 88.0876 13.1259 84.4681 6.91335 80.8707C6.58474 80.681 6.26459 80.4644 5.97189 80.2247C2.38231 77.2618 1.4389 72.537 3.74917 68.4682C7.23277 62.3242 10.7656 56.2052 14.3462 50.1137C16.7342 46.0509 21.9117 46.1533 24.282 50.2425C28.066 56.7734 36.84 57.348 41.1843 51.2983C43.4717 48.1137 43.7488 44.6165 42.0286 41.1146C40.3086 37.6128 37.3717 35.79 33.4607 35.5319C32.4051 35.4631 31.2808 35.4642 30.3234 35.0845C27.1774 33.8441 25.867 30.2997 27.5574 27.2863C31.1397 20.8919 34.7689 14.5141 38.5722 8.25082C41.0308 4.20049 45.9235 2.9724 50.2259 4.97589C50.7434 5.21807 51.2492 5.49247 51.7448 5.77858C57.4652 9.0777 63.222 12.3201 68.8843 15.72C70.6812 16.7999 72.5361 15.7719 72.4728 13.6294C72.3016 7.7569 76.0432 2.56755 81.4627 0.739054C87.0948 -1.1644 93.2012 0.689599 96.7203 5.37156C100.263 10.0809 100.475 16.507 96.9651 21.2825C95.8026 22.862 94.187 24.2649 92.4867 25.2514C90.7666 26.2477 90.7043 28.3566 92.534 29.374C98.4388 32.6595 104.265 36.0871 110.107 39.4813C114.01 41.7487 115.858 45.409 115.03 49.4119C114.796 50.5481 114.348 51.6893 113.775 52.7009C110.422 58.6128 106.935 64.4508 103.622 70.3856C101.153 74.8082 95.5188 74.6086 93.3265 70.4134C91.3557 66.636 87.2416 64.7836 83.1108 65.42C79.1243 66.0335 75.8113 69.1277 74.9105 73.0809C74.0023 77.0652 75.6368 81.2173 79.0958 83.5927C80.7759 84.7461 82.6763 85.4265 84.7023 85.2713C89.6264 84.8946 92.4544 89.9903 89.814 94.3243C86.3388 100.032 83.106 105.882 79.7565 111.665C76.8013 116.772 71.5354 118.187 66.4358 115.257C63.5574 113.603 60.6825 111.936 57.8071 110.275L57.8113 110.274Z" fill="#F53E34"/>
</svg>
